<svg width="323" height="124" viewBox="0 0 323 124" fill="none" xmlns="http://www.w3.org/2000/svg">
<path d="M38.2405 84.448C32.8218 84.448 28.3418 83.1893 24.8005 80.672C21.3018 78.112 19.4032 74.3787 19.1045 69.472H34.2085C34.4218 72.0747 35.5738 73.376 37.6645 73.376C38.4325 73.376 39.0725 73.2053 39.5845 72.864C40.1392 72.48 40.4165 71.904 40.4165 71.136C40.4165 70.0693 39.8405 69.216 38.6885 68.576C37.5365 67.8933 35.7445 67.1253 33.3125 66.272C30.4112 65.248 28.0005 64.2453 26.0805 63.264C24.2032 62.2827 22.5818 60.8533 21.2165 58.976C19.8512 57.0987 19.1898 54.688 19.2325 51.744C19.2325 48.8 19.9792 46.304 21.4725 44.256C23.0085 42.1653 25.0778 40.5867 27.6805 39.52C30.3258 38.4533 33.2912 37.92 36.5765 37.92C42.1232 37.92 46.5178 39.2 49.7605 41.76C53.0458 44.32 54.7738 47.9253 54.9445 52.576H39.6485C39.6058 51.296 39.2858 50.3787 38.6885 49.824C38.0912 49.2693 37.3658 48.992 36.5125 48.992C35.9152 48.992 35.4245 49.2053 35.0405 49.632C34.6565 50.016 34.4645 50.5707 34.4645 51.296C34.4645 52.32 35.0192 53.1733 36.1285 53.856C37.2805 54.496 39.0938 55.2853 41.5685 56.224C44.4272 57.2907 46.7738 58.3147 48.6085 59.296C50.4858 60.2773 52.1072 61.6427 53.4725 63.392C54.8378 65.1413 55.5205 67.3387 55.5205 69.984C55.5205 72.7573 54.8378 75.2533 53.4725 77.472C52.1072 79.648 50.1232 81.3547 47.5205 82.592C44.9178 83.8293 41.8245 84.448 38.2405 84.448ZM95.4565 65.632C95.4565 66.6133 95.3925 67.552 95.2645 68.448H72.4165C72.6298 71.5627 73.9312 73.12 76.3205 73.12C77.8565 73.12 78.9658 72.416 79.6485 71.008H94.6885C94.1765 73.568 93.0885 75.872 91.4245 77.92C89.8032 79.9253 87.7338 81.5253 85.2165 82.72C82.7418 83.872 80.0112 84.448 77.0245 84.448C73.4405 84.448 70.2405 83.7013 67.4245 82.208C64.6512 80.7147 62.4752 78.5813 60.8965 75.808C59.3605 72.992 58.5925 69.7067 58.5925 65.952C58.5925 62.1973 59.3605 58.9333 60.8965 56.16C62.4752 53.344 64.6512 51.1893 67.4245 49.696C70.2405 48.2027 73.4405 47.456 77.0245 47.456C80.6085 47.456 83.7872 48.2027 86.5605 49.696C89.3765 51.1467 91.5525 53.2373 93.0885 55.968C94.6672 58.6987 95.4565 61.92 95.4565 65.632ZM81.0565 62.24C81.0565 61.0453 80.6725 60.1493 79.9045 59.552C79.1365 58.912 78.1765 58.592 77.0245 58.592C74.5072 58.592 73.0352 59.808 72.6085 62.24H81.0565ZM114.158 54.56C115.609 52.4693 117.379 50.8053 119.47 49.568C121.561 48.288 123.737 47.648 125.998 47.648V62.816H121.966C119.278 62.816 117.294 63.2853 116.014 64.224C114.777 65.1627 114.158 66.8267 114.158 69.216V84H99.95V47.904H114.158V54.56ZM148.129 70.496L153.889 47.904H168.993L156.961 84H139.233L127.201 47.904H142.305L148.129 70.496ZM179.931 45.024C177.456 45.024 175.472 44.3627 173.979 43.04C172.485 41.7173 171.739 40.0533 171.739 38.048C171.739 36 172.485 34.3147 173.979 32.992C175.472 31.6267 177.456 30.944 179.931 30.944C182.363 30.944 184.325 31.6267 185.819 32.992C187.312 34.3147 188.059 36 188.059 38.048C188.059 40.0533 187.312 41.7173 185.819 43.04C184.325 44.3627 182.363 45.024 179.931 45.024ZM186.971 47.904V84H172.763V47.904H186.971ZM191.468 65.952C191.468 62.1973 192.236 58.9333 193.772 56.16C195.35 53.344 197.526 51.1893 200.3 49.696C203.116 48.2027 206.316 47.456 209.9 47.456C214.593 47.456 218.54 48.7787 221.74 51.424C224.982 54.0693 227.03 57.7387 227.884 62.432H212.844C212.289 60.5547 211.201 59.616 209.58 59.616C208.428 59.616 207.51 60.1493 206.828 61.216C206.188 62.2827 205.868 63.8613 205.868 65.952C205.868 68.0427 206.188 69.6213 206.828 70.688C207.51 71.7547 208.428 72.288 209.58 72.288C211.201 72.288 212.289 71.3493 212.844 69.472H227.884C227.03 74.1653 224.982 77.8347 221.74 80.48C218.54 83.1253 214.593 84.448 209.9 84.448C206.316 84.448 203.116 83.7013 200.3 82.208C197.526 80.7147 195.35 78.5813 193.772 75.808C192.236 72.992 191.468 69.7067 191.468 65.952ZM267.332 65.632C267.332 66.6133 267.268 67.552 267.14 68.448H244.292C244.505 71.5627 245.806 73.12 248.196 73.12C249.732 73.12 250.841 72.416 251.524 71.008H266.564C266.052 73.568 264.964 75.872 263.3 77.92C261.678 79.9253 259.609 81.5253 257.092 82.72C254.617 83.872 251.886 84.448 248.9 84.448C245.316 84.448 242.116 83.7013 239.3 82.208C236.526 80.7147 234.35 78.5813 232.772 75.808C231.236 72.992 230.468 69.7067 230.468 65.952C230.468 62.1973 231.236 58.9333 232.772 56.16C234.35 53.344 236.526 51.1893 239.3 49.696C242.116 48.2027 245.316 47.456 248.9 47.456C252.484 47.456 255.662 48.2027 258.436 49.696C261.252 51.1467 263.428 53.2373 264.964 55.968C266.542 58.6987 267.332 61.92 267.332 65.632ZM252.932 62.24C252.932 61.0453 252.548 60.1493 251.78 59.552C251.012 58.912 250.052 58.592 248.9 58.592C246.382 58.592 244.91 59.808 244.484 62.24H252.932ZM287.889 84.448C284.476 84.448 281.446 83.8933 278.801 82.784C276.198 81.6747 274.129 80.1387 272.593 78.176C271.057 76.2133 270.182 73.9947 269.969 71.52H283.601C283.772 72.5867 284.22 73.376 284.945 73.888C285.713 74.4 286.673 74.656 287.825 74.656C288.55 74.656 289.126 74.5067 289.553 74.208C289.98 73.8667 290.193 73.4613 290.193 72.992C290.193 72.1813 289.745 71.6053 288.849 71.264C287.953 70.9227 286.438 70.5387 284.305 70.112C281.702 69.6 279.548 69.0453 277.841 68.448C276.177 67.8507 274.705 66.8267 273.425 65.376C272.188 63.9253 271.569 61.92 271.569 59.36C271.569 57.1413 272.145 55.136 273.297 53.344C274.492 51.5093 276.241 50.08 278.545 49.056C280.849 47.9893 283.644 47.456 286.929 47.456C291.793 47.456 295.59 48.6507 298.321 51.04C301.094 53.4293 302.758 56.544 303.313 60.384H290.705C290.492 59.4027 290.044 58.656 289.361 58.144C288.678 57.5893 287.761 57.312 286.609 57.312C285.884 57.312 285.329 57.4613 284.945 57.76C284.561 58.016 284.369 58.4213 284.369 58.976C284.369 59.7013 284.817 60.256 285.713 60.64C286.609 60.9813 288.038 61.344 290.001 61.728C292.604 62.24 294.801 62.816 296.593 63.456C298.385 64.096 299.942 65.2053 301.265 66.784C302.588 68.32 303.249 70.4533 303.249 73.184C303.249 75.3173 302.63 77.2373 301.393 78.944C300.156 80.6507 298.364 81.9947 296.017 82.976C293.713 83.9573 291.004 84.448 287.889 84.448Z" fill="#6D91EE"/>
<line x1="291.414" y1="1" x2="322" y2="31.5858" stroke="#6D91EE" stroke-width="2" stroke-linecap="round"/>
<line x1="1" y1="-1" x2="44.2548" y2="-1" transform="matrix(-0.707107 0.707107 0.707107 0.707107 33 1)" stroke="#6D91EE" stroke-width="2" stroke-linecap="round"/>
<line x1="1" y1="-1" x2="44.2548" y2="-1" transform="matrix(0.707107 -0.707107 -0.707107 -0.707107 290 123)" stroke="#6D91EE" stroke-width="2" stroke-linecap="round"/>
<line x1="31.5858" y1="123" x2="1" y2="92.4142" stroke="#6D91EE" stroke-width="2" stroke-linecap="round"/>
</svg>
