<svg width="498" height="124" viewBox="0 0 498 124" fill="none" xmlns="http://www.w3.org/2000/svg">
<path d="M68.0763 61.28C68.0763 56.8 68.9723 52.8107 70.7643 49.312C72.5989 45.8133 75.2016 43.104 78.5723 41.184C81.9429 39.2213 85.9109 38.24 90.4763 38.24C94.4016 38.24 97.9003 38.9867 100.972 40.48C104.087 41.9307 106.604 44 108.524 46.688C110.487 49.376 111.788 52.512 112.428 56.096H97.4523C96.7696 54.6027 95.7883 53.4507 94.5083 52.64C93.2709 51.7867 91.8416 51.36 90.2203 51.36C87.8309 51.36 85.9323 52.256 84.5243 54.048C83.1589 55.84 82.4763 58.2507 82.4763 61.28C82.4763 64.3093 83.1589 66.72 84.5243 68.512C85.9323 70.304 87.8309 71.2 90.2203 71.2C91.8416 71.2 93.2709 70.7947 94.5083 69.984C95.7883 69.1307 96.7696 67.9573 97.4523 66.464H112.428C111.788 70.048 110.487 73.184 108.524 75.872C106.604 78.56 104.087 80.6507 100.972 82.144C97.9003 83.5947 94.4016 84.32 90.4763 84.32C85.9109 84.32 81.9429 83.36 78.5723 81.44C75.2016 79.4773 72.5989 76.7467 70.7643 73.248C68.9723 69.7493 68.0763 65.76 68.0763 61.28ZM134.696 84.448C131.069 84.448 127.805 83.7013 124.904 82.208C122.002 80.7147 119.72 78.5813 118.056 75.808C116.434 72.992 115.624 69.7067 115.624 65.952C115.624 62.1973 116.434 58.9333 118.056 56.16C119.72 53.344 122.002 51.1893 124.904 49.696C127.805 48.2027 131.069 47.456 134.696 47.456C138.322 47.456 141.586 48.2027 144.488 49.696C147.389 51.1893 149.65 53.344 151.272 56.16C152.936 58.9333 153.768 62.1973 153.768 65.952C153.768 69.7067 152.936 72.992 151.272 75.808C149.65 78.5813 147.389 80.7147 144.488 82.208C141.586 83.7013 138.322 84.448 134.696 84.448ZM134.696 72.16C136.018 72.16 137.128 71.648 138.024 70.624C138.92 69.5573 139.368 68 139.368 65.952C139.368 63.904 138.92 62.368 138.024 61.344C137.128 60.2773 136.018 59.744 134.696 59.744C133.373 59.744 132.264 60.2773 131.368 61.344C130.472 62.368 130.024 63.904 130.024 65.952C130.024 68 130.45 69.5573 131.304 70.624C132.2 71.648 133.33 72.16 134.696 72.16ZM183.511 47.648C187.65 47.648 190.871 49.0347 193.175 51.808C195.522 54.5813 196.695 58.336 196.695 63.072V84H182.551V64.864C182.551 63.1573 182.082 61.8133 181.143 60.832C180.247 59.808 179.031 59.296 177.495 59.296C175.917 59.296 174.679 59.808 173.783 60.832C172.887 61.8133 172.439 63.1573 172.439 64.864V84H158.231V47.904H172.439V53.408C173.549 51.7013 175.021 50.3147 176.855 49.248C178.733 48.1813 180.951 47.648 183.511 47.648ZM225.32 71.904V84H219.944C210.046 84 205.096 79.072 205.096 69.216V59.744H200.616V47.904H205.096V39.2H219.304V47.904H225.192V59.744H219.304V69.472C219.304 70.3253 219.496 70.944 219.88 71.328C220.307 71.712 220.99 71.904 221.928 71.904H225.32ZM228.811 65.952C228.811 62.1547 229.451 58.8693 230.731 56.096C232.054 53.28 233.846 51.1467 236.107 49.696C238.369 48.2027 240.907 47.456 243.723 47.456C246.07 47.456 248.097 47.9467 249.803 48.928C251.51 49.8667 252.811 51.168 253.707 52.832V47.904H267.851V84H253.707V79.072C252.811 80.736 251.51 82.0587 249.803 83.04C248.097 83.9787 246.07 84.448 243.723 84.448C240.907 84.448 238.369 83.7227 236.107 82.272C233.846 80.7787 232.054 78.6453 230.731 75.872C229.451 73.056 228.811 69.7493 228.811 65.952ZM253.707 65.952C253.707 64.032 253.217 62.5387 252.235 61.472C251.254 60.4053 249.995 59.872 248.459 59.872C246.923 59.872 245.665 60.4053 244.683 61.472C243.702 62.5387 243.211 64.032 243.211 65.952C243.211 67.872 243.702 69.3653 244.683 70.432C245.665 71.4987 246.923 72.032 248.459 72.032C249.995 72.032 251.254 71.4987 252.235 70.432C253.217 69.3653 253.707 67.872 253.707 65.952ZM272.311 65.952C272.311 62.1973 273.079 58.9333 274.615 56.16C276.194 53.344 278.37 51.1893 281.143 49.696C283.959 48.2027 287.159 47.456 290.743 47.456C295.437 47.456 299.383 48.7787 302.583 51.424C305.826 54.0693 307.874 57.7387 308.727 62.432H293.687C293.133 60.5547 292.045 59.616 290.423 59.616C289.271 59.616 288.354 60.1493 287.671 61.216C287.031 62.2827 286.711 63.8613 286.711 65.952C286.711 68.0427 287.031 69.6213 287.671 70.688C288.354 71.7547 289.271 72.288 290.423 72.288C292.045 72.288 293.133 71.3493 293.687 69.472H308.727C307.874 74.1653 305.826 77.8347 302.583 80.48C299.383 83.1253 295.437 84.448 290.743 84.448C287.159 84.448 283.959 83.7013 281.143 82.208C278.37 80.7147 276.194 78.5813 274.615 75.808C273.079 72.992 272.311 69.7067 272.311 65.952ZM335.695 71.904V84H330.319C320.421 84 315.471 79.072 315.471 69.216V59.744H310.991V47.904H315.471V39.2H329.679V47.904H335.567V59.744H329.679V69.472C329.679 70.3253 329.871 70.944 330.255 71.328C330.682 71.712 331.365 71.904 332.303 71.904H335.695ZM365.869 38.688V64.224C365.869 66.3147 366.317 67.9787 367.213 69.216C368.152 70.4107 369.645 71.008 371.693 71.008C373.741 71.008 375.256 70.4107 376.237 69.216C377.219 67.9787 377.709 66.3147 377.709 64.224V38.688H391.853V64.224C391.853 68.5333 390.957 72.224 389.165 75.296C387.373 78.3253 384.92 80.608 381.805 82.144C378.691 83.68 375.213 84.448 371.373 84.448C367.533 84.448 364.12 83.68 361.133 82.144C358.189 80.608 355.885 78.3253 354.221 75.296C352.557 72.2667 351.725 68.576 351.725 64.224V38.688H365.869ZM414.045 84.448C410.632 84.448 407.603 83.8933 404.957 82.784C402.355 81.6747 400.285 80.1387 398.749 78.176C397.213 76.2133 396.339 73.9947 396.125 71.52H409.757C409.928 72.5867 410.376 73.376 411.101 73.888C411.869 74.4 412.829 74.656 413.981 74.656C414.707 74.656 415.283 74.5067 415.709 74.208C416.136 73.8667 416.349 73.4613 416.349 72.992C416.349 72.1813 415.901 71.6053 415.005 71.264C414.109 70.9227 412.595 70.5387 410.461 70.112C407.859 69.6 405.704 69.0453 403.997 68.448C402.333 67.8507 400.861 66.8267 399.581 65.376C398.344 63.9253 397.725 61.92 397.725 59.36C397.725 57.1413 398.301 55.136 399.453 53.344C400.648 51.5093 402.397 50.08 404.701 49.056C407.005 47.9893 409.8 47.456 413.085 47.456C417.949 47.456 421.747 48.6507 424.477 51.04C427.251 53.4293 428.915 56.544 429.469 60.384H416.861C416.648 59.4027 416.2 58.656 415.517 58.144C414.835 57.5893 413.917 57.312 412.765 57.312C412.04 57.312 411.485 57.4613 411.101 57.76C410.717 58.016 410.525 58.4213 410.525 58.976C410.525 59.7013 410.973 60.256 411.869 60.64C412.765 60.9813 414.195 61.344 416.157 61.728C418.76 62.24 420.957 62.816 422.749 63.456C424.541 64.096 426.099 65.2053 427.421 66.784C428.744 68.32 429.405 70.4533 429.405 73.184C429.405 75.3173 428.787 77.2373 427.549 78.944C426.312 80.6507 424.52 81.9947 422.173 82.976C419.869 83.9573 417.16 84.448 414.045 84.448Z" fill="#6D91EE"/>
<line x1="466.414" y1="1" x2="497" y2="31.5858" stroke="#6D91EE" stroke-width="2" stroke-linecap="round"/>
<line x1="1" y1="-1" x2="44.2548" y2="-1" transform="matrix(-0.707107 0.707107 0.707107 0.707107 33 1)" stroke="#6D91EE" stroke-width="2" stroke-linecap="round"/>
<line x1="1" y1="-1" x2="44.2548" y2="-1" transform="matrix(0.707107 -0.707107 -0.707107 -0.707107 465 123)" stroke="#6D91EE" stroke-width="2" stroke-linecap="round"/>
<line x1="31.5858" y1="123" x2="1" y2="92.4142" stroke="#6D91EE" stroke-width="2" stroke-linecap="round"/>
</svg>
