<svg width="498" height="124" viewBox="0 0 498 124" fill="none" xmlns="http://www.w3.org/2000/svg">
<path d="M56.2215 38.688V49.952H44.1895V84H29.9815V49.952H18.0775V38.688H56.2215ZM95.019 65.632C95.019 66.6133 94.955 67.552 94.827 68.448H71.979C72.1923 71.5627 73.4937 73.12 75.883 73.12C77.419 73.12 78.5283 72.416 79.211 71.008H94.251C93.739 73.568 92.651 75.872 90.987 77.92C89.3657 79.9253 87.2963 81.5253 84.779 82.72C82.3043 83.872 79.5737 84.448 76.587 84.448C73.003 84.448 69.803 83.7013 66.987 82.208C64.2137 80.7147 62.0377 78.5813 60.459 75.808C58.923 72.992 58.155 69.7067 58.155 65.952C58.155 62.1973 58.923 58.9333 60.459 56.16C62.0377 53.344 64.2137 51.1893 66.987 49.696C69.803 48.2027 73.003 47.456 76.587 47.456C80.171 47.456 83.3497 48.2027 86.123 49.696C88.939 51.1467 91.115 53.2373 92.651 55.968C94.2297 58.6987 95.019 61.92 95.019 65.632ZM80.619 62.24C80.619 61.0453 80.235 60.1493 79.467 59.552C78.699 58.912 77.739 58.592 76.587 58.592C74.0697 58.592 72.5977 59.808 72.171 62.24H80.619ZM115.577 84.448C112.163 84.448 109.134 83.8933 106.489 82.784C103.886 81.6747 101.817 80.1387 100.281 78.176C98.7445 76.2133 97.8698 73.9947 97.6565 71.52H111.289C111.459 72.5867 111.907 73.376 112.633 73.888C113.401 74.4 114.361 74.656 115.513 74.656C116.238 74.656 116.814 74.5067 117.241 74.208C117.667 73.8667 117.881 73.4613 117.881 72.992C117.881 72.1813 117.433 71.6053 116.537 71.264C115.641 70.9227 114.126 70.5387 111.993 70.112C109.39 69.6 107.235 69.0453 105.529 68.448C103.865 67.8507 102.393 66.8267 101.113 65.376C99.8752 63.9253 99.2565 61.92 99.2565 59.36C99.2565 57.1413 99.8325 55.136 100.985 53.344C102.179 51.5093 103.929 50.08 106.233 49.056C108.537 47.9893 111.331 47.456 114.617 47.456C119.481 47.456 123.278 48.6507 126.009 51.04C128.782 53.4293 130.446 56.544 131.001 60.384H118.393C118.179 59.4027 117.731 58.656 117.049 58.144C116.366 57.5893 115.449 57.312 114.297 57.312C113.571 57.312 113.017 57.4613 112.633 57.76C112.249 58.016 112.057 58.4213 112.057 58.976C112.057 59.7013 112.505 60.256 113.401 60.64C114.297 60.9813 115.726 61.344 117.689 61.728C120.291 62.24 122.489 62.816 124.281 63.456C126.073 64.096 127.63 65.2053 128.953 66.784C130.275 68.32 130.937 70.4533 130.937 73.184C130.937 75.3173 130.318 77.2373 129.081 78.944C127.843 80.6507 126.051 81.9947 123.705 82.976C121.401 83.9573 118.691 84.448 115.577 84.448ZM159.039 71.904V84H153.663C143.764 84 138.815 79.072 138.815 69.216V59.744H134.335V47.904H138.815V39.2H153.023V47.904H158.911V59.744H153.023V69.472C153.023 70.3253 153.215 70.944 153.599 71.328C154.026 71.712 154.708 71.904 155.647 71.904H159.039ZM205.218 47.904L182.114 101.28H166.562L175.65 82.208L160.61 47.904H176.418L183.202 66.208L189.538 47.904H205.218ZM255.955 47.648C260.563 47.648 264.125 49.0347 266.643 51.808C269.203 54.5813 270.483 58.336 270.483 63.072V84H256.339V64.864C256.339 63.328 255.869 62.1333 254.931 61.28C254.035 60.384 252.819 59.936 251.283 59.936C249.704 59.936 248.467 60.384 247.571 61.28C246.675 62.1333 246.227 63.328 246.227 64.864V84H232.083V64.864C232.083 63.328 231.613 62.1333 230.675 61.28C229.779 60.384 228.563 59.936 227.027 59.936C225.448 59.936 224.211 60.384 223.315 61.28C222.419 62.1333 221.971 63.328 221.971 64.864V84H207.763V47.904H221.971V52.768C222.995 51.232 224.381 49.9947 226.131 49.056C227.923 48.1173 230.013 47.648 232.403 47.648C235.005 47.648 237.309 48.224 239.315 49.376C241.32 50.4853 242.92 52.064 244.115 54.112C245.437 52.2347 247.123 50.6987 249.171 49.504C251.219 48.2667 253.48 47.648 255.955 47.648ZM293.79 84.448C290.163 84.448 286.899 83.7013 283.998 82.208C281.096 80.7147 278.814 78.5813 277.15 75.808C275.528 72.992 274.718 69.7067 274.718 65.952C274.718 62.1973 275.528 58.9333 277.15 56.16C278.814 53.344 281.096 51.1893 283.998 49.696C286.899 48.2027 290.163 47.456 293.79 47.456C297.416 47.456 300.68 48.2027 303.582 49.696C306.483 51.1893 308.744 53.344 310.366 56.16C312.03 58.9333 312.862 62.1973 312.862 65.952C312.862 69.7067 312.03 72.992 310.366 75.808C308.744 78.5813 306.483 80.7147 303.582 82.208C300.68 83.7013 297.416 84.448 293.79 84.448ZM293.79 72.16C295.112 72.16 296.222 71.648 297.118 70.624C298.014 69.5573 298.462 68 298.462 65.952C298.462 63.904 298.014 62.368 297.118 61.344C296.222 60.2773 295.112 59.744 293.79 59.744C292.467 59.744 291.358 60.2773 290.462 61.344C289.566 62.368 289.118 63.904 289.118 65.952C289.118 68 289.544 69.5573 290.398 70.624C291.294 71.648 292.424 72.16 293.79 72.16ZM342.605 47.648C346.744 47.648 349.965 49.0347 352.269 51.808C354.616 54.5813 355.789 58.336 355.789 63.072V84H341.645V64.864C341.645 63.1573 341.176 61.8133 340.237 60.832C339.341 59.808 338.125 59.296 336.589 59.296C335.01 59.296 333.773 59.808 332.877 60.832C331.981 61.8133 331.533 63.1573 331.533 64.864V84H317.325V47.904H331.533V53.408C332.642 51.7013 334.114 50.3147 335.949 49.248C337.826 48.1813 340.045 47.648 342.605 47.648ZM369.118 45.024C366.643 45.024 364.659 44.3627 363.166 43.04C361.673 41.7173 360.926 40.0533 360.926 38.048C360.926 36 361.673 34.3147 363.166 32.992C364.659 31.6267 366.643 30.944 369.118 30.944C371.55 30.944 373.513 31.6267 375.006 32.992C376.499 34.3147 377.246 36 377.246 38.048C377.246 40.0533 376.499 41.7173 375.006 43.04C373.513 44.3627 371.55 45.024 369.118 45.024ZM376.158 47.904V84H361.95V47.904H376.158ZM380.655 65.952C380.655 62.1547 381.295 58.8693 382.575 56.096C383.898 53.28 385.69 51.1467 387.951 49.696C390.212 48.2027 392.751 47.456 395.567 47.456C397.914 47.456 399.94 47.9467 401.647 48.928C403.354 49.8667 404.655 51.168 405.551 52.832V47.904H419.695V84H405.551V79.072C404.655 80.736 403.354 82.0587 401.647 83.04C399.94 83.9787 397.914 84.448 395.567 84.448C392.751 84.448 390.212 83.7227 387.951 82.272C385.69 80.7787 383.898 78.6453 382.575 75.872C381.295 73.056 380.655 69.7493 380.655 65.952ZM405.551 65.952C405.551 64.032 405.06 62.5387 404.079 61.472C403.098 60.4053 401.839 59.872 400.303 59.872C398.767 59.872 397.508 60.4053 396.527 61.472C395.546 62.5387 395.055 64.032 395.055 65.952C395.055 67.872 395.546 69.3653 396.527 70.432C397.508 71.4987 398.767 72.032 400.303 72.032C401.839 72.032 403.098 71.4987 404.079 70.432C405.06 69.3653 405.551 67.872 405.551 65.952ZM440.283 36.64V84H426.075V36.64H440.283ZM462.764 84.448C459.351 84.448 456.321 83.8933 453.676 82.784C451.073 81.6747 449.004 80.1387 447.468 78.176C445.932 76.2133 445.057 73.9947 444.844 71.52H458.476C458.647 72.5867 459.095 73.376 459.82 73.888C460.588 74.4 461.548 74.656 462.7 74.656C463.425 74.656 464.001 74.5067 464.428 74.208C464.855 73.8667 465.068 73.4613 465.068 72.992C465.068 72.1813 464.62 71.6053 463.724 71.264C462.828 70.9227 461.313 70.5387 459.18 70.112C456.577 69.6 454.423 69.0453 452.716 68.448C451.052 67.8507 449.58 66.8267 448.3 65.376C447.063 63.9253 446.444 61.92 446.444 59.36C446.444 57.1413 447.02 55.136 448.172 53.344C449.367 51.5093 451.116 50.08 453.42 49.056C455.724 47.9893 458.519 47.456 461.804 47.456C466.668 47.456 470.465 48.6507 473.196 51.04C475.969 53.4293 477.633 56.544 478.188 60.384H465.58C465.367 59.4027 464.919 58.656 464.236 58.144C463.553 57.5893 462.636 57.312 461.484 57.312C460.759 57.312 460.204 57.4613 459.82 57.76C459.436 58.016 459.244 58.4213 459.244 58.976C459.244 59.7013 459.692 60.256 460.588 60.64C461.484 60.9813 462.913 61.344 464.876 61.728C467.479 62.24 469.676 62.816 471.468 63.456C473.26 64.096 474.817 65.2053 476.14 66.784C477.463 68.32 478.124 70.4533 478.124 73.184C478.124 75.3173 477.505 77.2373 476.268 78.944C475.031 80.6507 473.239 81.9947 470.892 82.976C468.588 83.9573 465.879 84.448 462.764 84.448Z" fill="#6D91EE"/>
<line x1="466.414" y1="1" x2="497" y2="31.5858" stroke="#6D91EE" stroke-width="2" stroke-linecap="round"/>
<line x1="1" y1="-1" x2="44.2548" y2="-1" transform="matrix(-0.707107 0.707107 0.707107 0.707107 33 1)" stroke="#6D91EE" stroke-width="2" stroke-linecap="round"/>
<line x1="1" y1="-1" x2="44.2548" y2="-1" transform="matrix(0.707107 -0.707107 -0.707107 -0.707107 465 123)" stroke="#6D91EE" stroke-width="2" stroke-linecap="round"/>
<line x1="31.5858" y1="123" x2="1" y2="92.4142" stroke="#6D91EE" stroke-width="2" stroke-linecap="round"/>
</svg>
